<svg width="199" height="200" xmlns="http://www.w3.org/2000/svg" preserveAspectRatio="xMidYMid meet">
 <g>
  <title>background</title>
  <rect x="-1" y="-1" width="201" height="202" id="canvas_background" fill="none"/>
 </g>

 <g>
  <title>Layer 1</title>
  <g transform="translate(0,200) scale(0.10000000149011612,-0.10000000149011612) " fill="#000" id="svg_1">
   <path d="m805,1901c-110,-24 -148,-37 -236,-83c-201,-103 -373,-295 -447,-497c-64,-176 -70,-424 -15,-596c72,-227 254,-435 480,-548c255,-129 606,-123 861,13c126,67 268,195 346,312c49,75 99,189 122,278c26,104 27,358 1,445c-52,175 -129,306 -248,424c-137,136 -292,218 -481,256c-102,20 -281,18 -383,-4zm407,-60c312,-80 540,-295 639,-601c22,-68 24,-92 23,-245c0,-167 -1,-172 -33,-260c-41,-112 -79,-181 -147,-266c-239,-299 -650,-409 -1011,-269c-127,49 -200,97 -308,205c-89,88 -107,112 -153,205c-73,148 -97,245 -96,395c1,319 167,593 455,754c81,45 179,77 329,105c51,9 227,-4 302,-23z" id="svg_2"/>
   <path d="m954,1789c-4,-6 -20,-8 -39,-5c-41,8 -84,-10 -91,-39c-3,-11 -19,-26 -35,-32c-18,-7 -33,-23 -39,-40c-6,-15 -26,-38 -44,-50c-39,-25 -76,-109 -76,-173c0,-32 -10,-53 -46,-102c-25,-35 -49,-65 -54,-68c-13,-8 -50,-74 -50,-88c0,-8 -34,-73 -75,-145c-97,-168 -118,-237 -113,-358c3,-87 4,-92 33,-118c17,-14 36,-38 43,-54c13,-30 54,-51 82,-42c9,3 23,-2 30,-10c9,-11 27,-16 54,-14c23,1 55,-5 73,-14c18,-9 43,-17 56,-17c37,0 155,39 159,52c3,9 27,9 99,-2c52,-7 108,-13 124,-12c477,23 433,17 550,72c90,43 126,76 129,116c0,16 11,39 24,53c26,28 27,46 8,83c-8,15 -12,35 -10,45c3,10 -7,36 -21,57c-14,21 -24,45 -21,53c10,25 -20,77 -72,126c-28,26 -57,47 -65,47c-13,0 -87,151 -87,177c0,7 -14,29 -32,48c-17,20 -62,84 -99,143c-122,192 -162,235 -276,291c-64,32 -107,39 -119,20zm-32,-65c16,-9 49,-33 73,-55c41,-38 43,-38 59,-20c16,18 15,20 -20,50c-49,40 -36,52 23,21c83,-45 146,-112 233,-252c46,-73 91,-140 101,-148c18,-15 124,-246 131,-284c2,-15 -8,-24 -47,-38c-27,-10 -75,-23 -106,-28c-73,-13 -105,-2 -124,45c-8,19 -23,38 -32,44c-10,5 -78,19 -151,32c-151,26 -170,38 -133,86c22,28 28,84 12,126c-11,27 -92,113 -163,170c-41,33 -50,37 -68,27c-20,-11 -21,-10 -15,12c27,84 42,87 124,24c52,-40 58,-43 76,-29c19,14 17,17 -45,73c-59,54 -64,60 -49,75c16,16 29,9 155,-80c9,-7 19,-5 30,7c15,15 14,19 -21,50c-21,18 -51,41 -67,50c-27,17 -35,37 -21,51c9,9 10,9 45,-9zm-107,-356c85,-85 99,-117 64,-154c-14,-15 -23,-37 -23,-57c0,-31 8,-55 70,-215c31,-81 24,-97 -45,-97c-43,0 -55,-5 -85,-34c-59,-57 -112,-260 -81,-308c15,-22 14,-23 -9,-23c-13,0 -30,-2 -38,-5c-7,-3 -22,0 -32,8c-16,12 -17,20 -7,87c7,56 7,76 -2,82c-25,16 -34,6 -47,-49c-17,-79 -30,-103 -53,-103c-18,0 -19,5 -14,68c4,37 9,77 13,89c4,16 0,24 -16,33c-12,6 -24,10 -26,7c-3,-3 -10,-36 -16,-73c-13,-89 -24,-110 -45,-92c-12,10 -14,25 -9,73c3,33 9,72 12,87c5,21 2,27 -16,33c-28,9 -36,-3 -45,-64c-7,-43 -8,-44 -17,-21c-20,52 13,241 53,295c7,10 28,47 77,135c13,25 28,50 33,55c4,6 14,28 21,50c14,40 185,265 201,265c5,0 42,-33 82,-72zm225,-327c19,-3 34,-10 33,-14c-1,-4 -20,-31 -42,-59c-34,-42 -42,-47 -47,-32c-3,11 -14,40 -25,66c-25,61 -25,62 14,53c17,-4 48,-10 67,-14zm144,-37c9,-8 16,-22 16,-29c0,-8 17,-26 37,-40c60,-40 116,-35 296,28c42,14 57,25 57,38c0,26 15,24 39,-7c40,-51 29,-68 -65,-100c-60,-20 -65,-24 -58,-51l6,-21l80,25c66,20 82,22 89,11c5,-7 9,-16 9,-20c0,-10 -76,-48 -125,-64c-33,-10 -40,-16 -37,-35c4,-38 0,-38 131,17c26,11 36,12 47,3c23,-19 -8,-44 -92,-75c-66,-24 -74,-29 -68,-48c9,-31 9,-31 70,-8c50,18 54,18 40,3c-24,-26 -110,-71 -170,-88c-88,-25 -426,-34 -588,-15c-95,11 -138,20 -138,28c0,42 35,165 56,197c23,35 27,37 80,37c45,0 59,4 74,23c78,94 156,184 168,195c20,16 27,15 46,-4z" id="svg_3"/>
  </g>
 </g>
</svg>